<svg width="32" height="35" viewBox="0 0 32 35" fill="none" xmlns="http://www.w3.org/2000/svg">
<path d="M30.3512 13.2257C30.0892 13.4451 29.8151 13.653 29.526 13.8474C28.857 14.2949 28.493 14.5407 28.2653 14.7269C28.9329 16.1337 29.3428 17.6728 29.424 19.2972H24.6127H23.3371H16.6401V11.6473H15.36H10.267C10.4676 11.1957 10.6822 10.7664 10.9128 10.3669C11.6025 9.16621 12.4161 8.21465 13.2833 7.57877C13.3486 7.53092 13.4138 7.48847 13.4791 7.44376C13.876 7.37349 14.2806 7.3242 14.6885 7.28681C14.6649 7.03135 14.6484 6.775 14.6484 6.51729C14.6484 5.94662 14.7074 5.38915 14.8166 4.84816C10.8731 5.12002 7.31671 6.74123 4.68606 9.22466C1.79289 11.9535 -0.000941288 15.736 4.29778e-07 19.9013C-0.00101373 24.0665 1.79289 27.8491 4.68606 30.5779C7.57728 33.3081 11.5856 35.0009 16 35C20.4144 35.0009 24.4223 33.3081 27.3139 30.5779C30.207 27.8491 32.0004 24.0666 32 19.9013C32.0005 17.5068 31.405 15.2397 30.3512 13.2257ZM6.49691 10.9334C7.74795 9.75328 9.2426 8.80814 10.9021 8.16543C10.1112 9.13155 9.43789 10.3122 8.89119 11.6474H5.80084C6.02417 11.4019 6.25424 11.162 6.49691 10.9334ZM4.82485 12.8552H8.44359C7.81278 14.7784 7.43957 16.968 7.3835 19.2973H2.57611C2.69447 16.9174 3.50565 14.7142 4.82485 12.8552ZM4.30133 26.1421C3.29297 24.4638 2.6781 22.5506 2.57611 20.5052H7.38785C7.43667 22.5173 7.72281 24.4204 8.20765 26.1421H4.30133ZM6.49691 28.8691C5.99809 28.3983 5.5407 27.8892 5.12504 27.35H8.59006C8.92987 28.3107 9.32677 29.2089 9.78742 30.0113C10.1287 30.6044 10.5028 31.1472 10.9046 31.6385C9.24412 30.9957 7.74896 30.0496 6.49691 28.8691ZM15.36 32.5686C14.72 32.5403 14.0926 32.4678 13.4796 32.3587C13.4138 32.314 13.3486 32.2716 13.2833 32.2242C11.9815 31.2707 10.8054 29.6021 9.9754 27.4595C9.96192 27.4239 9.94983 27.3856 9.93577 27.35H15.36V32.5686ZM15.36 26.1421H9.52975C9.02267 24.4496 8.71473 22.5378 8.66301 20.5052H15.36V26.1421ZM15.36 19.2973H8.65866C8.71762 16.9361 9.12611 14.7347 9.7864 12.8552H15.3599V19.2973H15.36ZM16.6401 20.5052H23.3414C23.2906 22.5375 22.9803 24.4497 22.4732 26.1421H16.6401V20.5052ZM18.7168 32.2242C18.652 32.2716 18.5862 32.314 18.5205 32.3587C17.9075 32.4678 17.2801 32.5403 16.6401 32.5686V27.35H22.0657C21.7785 28.105 21.4508 28.8047 21.0873 29.4356C20.3975 30.6362 19.584 31.5874 18.7168 32.2242ZM25.5037 28.8691C24.2517 30.0492 22.7575 30.9948 21.0975 31.638C21.9444 30.6034 22.6603 29.328 23.2264 27.8755C23.2931 27.7049 23.3531 27.5261 23.4149 27.35H26.8751C26.4593 27.8892 26.0021 28.3983 25.5037 28.8691ZM27.6987 26.1421H23.8011C24.2845 24.4218 24.5678 22.5155 24.6166 20.5052H29.424C29.322 22.5507 28.7067 24.4638 27.6987 26.1421Z" fill="#1749A4"/>
<path d="M20.1843 11.8768C21.8119 12.9671 22.1717 13.2266 22.7444 14.258C23.1974 15.0745 23.9317 16.506 23.9317 16.506C23.9665 16.5712 24.0366 16.6127 24.1144 16.6127C24.1913 16.6127 24.2628 16.5712 24.2971 16.506C24.2971 16.506 25.0319 15.0745 25.4848 14.258C26.0567 13.2266 26.4168 12.9671 28.0449 11.8768C29.8291 10.6826 31.0212 8.73836 31.0212 6.5173C31.0211 2.91812 27.9284 0 24.1143 0C20.2998 0 17.2085 2.91812 17.2085 6.5173C17.2085 8.73836 18.3996 10.6825 20.1843 11.8768ZM24.1143 3.76065C25.7279 3.76065 27.036 4.99508 27.036 6.5173C27.036 8.03994 25.7279 9.27437 24.1143 9.27437C22.5007 9.27437 21.1931 8.03994 21.1931 6.5173C21.1932 4.99508 22.5007 3.76065 24.1143 3.76065Z" fill="#A42817"/>
</svg>
