<svg width="362" height="37" viewBox="0 0 362 37" fill="none" xmlns="http://www.w3.org/2000/svg">
<path d="M8.0696 29H0.890625L10.2152 1.36364H19.108L28.4325 29H21.2536L14.7628 8.3267H14.5469L8.0696 29ZM7.11151 18.1236H22.1172V23.1974H7.11151V18.1236ZM40.3677 1.36364V29H33.688V1.36364H40.3677ZM46.8411 29V1.36364H58.2573C60.3264 1.36364 62.1121 1.73698 63.6145 2.48366C65.1259 3.22135 66.2909 4.28291 67.1095 5.66832C67.9282 7.04474 68.3375 8.67756 68.3375 10.5668C68.3375 12.483 67.9192 14.1113 67.0826 15.4517C66.2459 16.7831 65.0584 17.7997 63.5201 18.5014C61.9817 19.1941 60.16 19.5405 58.0549 19.5405H50.8354V14.2777H56.8134C57.821 14.2777 58.6621 14.1473 59.3368 13.8864C60.0205 13.6165 60.5378 13.2116 60.8887 12.6719C61.2395 12.1231 61.4149 11.4214 61.4149 10.5668C61.4149 9.71212 61.2395 9.00592 60.8887 8.44815C60.5378 7.88139 60.0205 7.45857 59.3368 7.17969C58.6531 6.89181 57.812 6.74787 56.8134 6.74787H53.5208V29H46.8411ZM62.4 16.3693L69.2821 29H61.9952L55.248 16.3693H62.4ZM74.2812 29V1.36364H80.9609V23.5753H92.4581V29H74.2812ZM104.876 1.36364V29H98.196V1.36364H104.876ZM134.87 1.36364V29H129.202L118.204 13.0497H118.029V29H111.349V1.36364H117.098L127.974 17.2869H128.203V1.36364H134.87ZM141.35 29V1.36364H160.62V6.78835H148.029V12.456H159.635V17.8942H148.029V23.5753H160.62V29H141.35ZM182.021 9.64915C181.931 8.65956 181.531 7.89039 180.82 7.34162C180.118 6.78385 179.115 6.50497 177.811 6.50497C176.947 6.50497 176.228 6.61742 175.652 6.84233C175.076 7.06723 174.644 7.3776 174.356 7.77344C174.068 8.16027 173.92 8.60559 173.911 9.10938C173.893 9.5232 173.974 9.88755 174.154 10.2024C174.343 10.5173 174.613 10.7962 174.964 11.0391C175.323 11.273 175.755 11.4799 176.259 11.6598C176.763 11.8397 177.33 11.9972 177.959 12.1321L180.334 12.6719C181.702 12.9688 182.907 13.3646 183.951 13.8594C185.003 14.3542 185.885 14.9434 186.596 15.6271C187.315 16.3108 187.86 17.098 188.228 17.9886C188.597 18.8793 188.786 19.8778 188.795 20.9844C188.786 22.7296 188.345 24.2275 187.473 25.478C186.6 26.7285 185.345 27.6866 183.708 28.3523C182.08 29.018 180.114 29.3509 177.811 29.3509C175.499 29.3509 173.484 29.0045 171.765 28.3118C170.047 27.6191 168.711 26.5665 167.758 25.1541C166.804 23.7417 166.314 21.956 166.287 19.7969H172.683C172.737 20.6875 172.975 21.4297 173.398 22.0234C173.821 22.6172 174.401 23.067 175.139 23.3729C175.886 23.6787 176.749 23.8317 177.73 23.8317C178.63 23.8317 179.394 23.7102 180.024 23.4673C180.663 23.2244 181.153 22.8871 181.495 22.4553C181.837 22.0234 182.012 21.5286 182.021 20.9709C182.012 20.4491 181.85 20.0038 181.535 19.6349C181.22 19.2571 180.735 18.9332 180.078 18.6634C179.43 18.3845 178.603 18.1281 177.595 17.8942L174.707 17.2195C172.314 16.6707 170.429 15.7846 169.053 14.5611C167.677 13.3286 166.993 11.6643 167.002 9.56818C166.993 7.8589 167.452 6.36103 168.378 5.07457C169.305 3.78811 170.587 2.78504 172.224 2.06534C173.862 1.34564 175.728 0.985794 177.824 0.985794C179.965 0.985794 181.823 1.35014 183.398 2.07883C184.981 2.79853 186.209 3.81061 187.081 5.11506C187.954 6.41951 188.399 7.93087 188.417 9.64915H182.021Z" fill="#0055A3"/>
<path d="M204.893 29V1.36364H224.163V6.78835H211.573V12.456H223.178V17.8942H211.573V23.5753H224.163V29H204.893ZM236.24 8.27273L239.654 15.1009L243.189 8.27273H249.842L244.053 18.6364L250.058 29H243.459L239.654 22.1179L235.943 29H229.25L235.268 18.6364L229.546 8.27273H236.24ZM255.135 36.7727V8.27273H261.666V11.8217H261.868C262.138 11.192 262.52 10.5848 263.015 10C263.519 9.41525 264.158 8.93845 264.931 8.5696C265.714 8.19176 266.65 8.00284 267.738 8.00284C269.178 8.00284 270.523 8.38068 271.773 9.13636C273.032 9.89204 274.049 11.0571 274.823 12.6314C275.596 14.2057 275.983 16.2119 275.983 18.6499C275.983 20.9979 275.61 22.9635 274.863 24.5469C274.126 26.1302 273.127 27.3177 271.867 28.1094C270.617 28.901 269.227 29.2969 267.698 29.2969C266.654 29.2969 265.75 29.1259 264.985 28.7841C264.221 28.4422 263.577 27.9924 263.056 27.4347C262.543 26.8769 262.147 26.2786 261.868 25.6399H261.733V36.7727H255.135ZM261.598 18.6364C261.598 19.7519 261.747 20.7235 262.044 21.5511C262.349 22.3788 262.786 23.022 263.353 23.4808C263.928 23.9306 264.617 24.1555 265.417 24.1555C266.227 24.1555 266.915 23.9306 267.482 23.4808C268.049 23.022 268.476 22.3788 268.764 21.5511C269.061 20.7235 269.209 19.7519 269.209 18.6364C269.209 17.5208 269.061 16.5537 268.764 15.7351C268.476 14.9164 268.049 14.2822 267.482 13.8324C266.924 13.3826 266.236 13.1577 265.417 13.1577C264.608 13.1577 263.919 13.3781 263.353 13.8189C262.786 14.2597 262.349 14.8894 262.044 15.7081C261.747 16.5268 261.598 17.5028 261.598 18.6364ZM291.41 29.3913C289.242 29.3913 287.371 28.964 285.796 28.1094C284.231 27.2457 283.026 26.0178 282.18 24.4254C281.343 22.8241 280.925 20.9214 280.925 18.7173C280.925 16.5762 281.348 14.705 282.193 13.1037C283.039 11.4934 284.231 10.2429 285.769 9.35227C287.308 8.45265 289.121 8.00284 291.208 8.00284C292.683 8.00284 294.032 8.23224 295.256 8.69105C296.479 9.14986 297.536 9.82907 298.427 10.7287C299.318 11.6283 300.01 12.7393 300.505 14.0618C301 15.3752 301.247 16.8821 301.247 18.5824V20.2287H283.232V16.3963H295.107C295.099 15.6946 294.932 15.0694 294.608 14.5206C294.284 13.9718 293.839 13.5445 293.272 13.2386C292.715 12.9238 292.071 12.7663 291.343 12.7663C290.605 12.7663 289.944 12.9328 289.359 13.2656C288.774 13.5895 288.311 14.0348 287.969 14.6016C287.627 15.1593 287.447 15.7936 287.429 16.5043V20.4041C287.429 21.2498 287.596 21.992 287.929 22.6307C288.261 23.2604 288.734 23.7507 289.345 24.1016C289.957 24.4524 290.686 24.6278 291.532 24.6278C292.116 24.6278 292.647 24.5469 293.124 24.3849C293.601 24.223 294.01 23.9846 294.352 23.6697C294.694 23.3549 294.95 22.968 295.121 22.5092L301.18 22.6847C300.928 24.0431 300.375 25.2261 299.52 26.2337C298.674 27.2322 297.563 28.0104 296.187 28.5682C294.811 29.117 293.218 29.3913 291.41 29.3913ZM306.898 29V8.27273H313.307V12.0511H313.523C313.901 10.6837 314.517 9.66714 315.372 9.00142C316.227 8.3267 317.221 7.98935 318.354 7.98935C318.66 7.98935 318.975 8.01184 319.299 8.05682C319.623 8.0928 319.924 8.15128 320.203 8.23224V13.9673C319.888 13.8594 319.474 13.7739 318.962 13.7109C318.458 13.648 318.008 13.6165 317.612 13.6165C316.829 13.6165 316.123 13.7919 315.494 14.1428C314.873 14.4846 314.382 14.9659 314.023 15.5866C313.672 16.1984 313.496 16.9181 313.496 17.7457V29H306.898ZM337.836 8.27273V13.1307H324.76V8.27273H337.836ZM327.5 3.30682H334.098V22.4822C334.098 22.8871 334.161 23.2154 334.287 23.4673C334.422 23.7102 334.616 23.8857 334.867 23.9936C335.119 24.0926 335.421 24.142 335.772 24.142C336.023 24.142 336.289 24.1196 336.568 24.0746C336.856 24.0206 337.072 23.9756 337.215 23.9396L338.214 28.7031C337.899 28.7931 337.454 28.9055 336.878 29.0405C336.311 29.1754 335.632 29.2609 334.84 29.2969C333.293 29.3688 331.966 29.1889 330.86 28.7571C329.762 28.3163 328.921 27.6326 328.336 26.706C327.76 25.7794 327.482 24.6143 327.5 23.2109V3.30682ZM361.319 14.6016L355.26 14.7635C355.197 14.3317 355.026 13.9493 354.747 13.6165C354.469 13.2746 354.104 13.0092 353.654 12.8203C353.214 12.6224 352.701 12.5234 352.116 12.5234C351.351 12.5234 350.699 12.6764 350.159 12.9822C349.629 13.2881 349.368 13.7019 349.377 14.2237C349.368 14.6286 349.53 14.9794 349.862 15.2763C350.204 15.5732 350.812 15.8116 351.684 15.9915L355.679 16.7472C357.748 17.143 359.286 17.7997 360.294 18.7173C361.31 19.6349 361.823 20.8494 361.832 22.3608C361.823 23.7822 361.4 25.0192 360.563 26.0717C359.736 27.1243 358.602 27.9429 357.163 28.5277C355.724 29.1035 354.077 29.3913 352.224 29.3913C349.264 29.3913 346.93 28.7841 345.22 27.5696C343.52 26.3461 342.549 24.7088 342.306 22.6577L348.823 22.4957C348.967 23.2514 349.341 23.8272 349.943 24.223C350.546 24.6188 351.315 24.8168 352.251 24.8168C353.097 24.8168 353.785 24.6593 354.316 24.3445C354.846 24.0296 355.116 23.6113 355.125 23.0895C355.116 22.6217 354.909 22.2483 354.505 21.9695C354.1 21.6816 353.465 21.4567 352.602 21.2947L348.985 20.6065C346.907 20.2287 345.36 19.5315 344.343 18.5149C343.327 17.4893 342.823 16.1849 342.832 14.6016C342.823 13.2161 343.192 12.0331 343.938 11.0526C344.685 10.063 345.747 9.30729 347.123 8.78551C348.5 8.26373 350.123 8.00284 351.995 8.00284C354.801 8.00284 357.014 8.59209 358.634 9.7706C360.253 10.9401 361.148 12.5504 361.319 14.6016Z" fill="#ED1D24"/>
</svg>
